<svg xmlns="http://www.w3.org/2000/svg" width="16" height="14.477" viewBox="0 0 16 14.477">
  <defs>
    <style>
      .cls-1 {
        fill: none;
      }

      .cls-2, .cls-3 {
        stroke: none;
      }
    </style>
  </defs>
  <g id="组_54618" data-name="组 54618" transform="translate(-249 -306)">
    <g id="路径_38946" data-name="路径 38946" class="cls-1" transform="translate(249 306)">
      <path class="cls-2" d="M2,0H14a2,2,0,0,1,2,2v9a2,2,0,0,1-2,2H12.644l-1.584,1.477L9.636,13H2a2,2,0,0,1-2-2V2A2,2,0,0,1,2,0Z"/>
      <path class="cls-3" d="M 2 1.000004768371582 C 1.448599815368652 1.000004768371582 1 1.448604583740234 1 2.000004768371582 L 1 11.00000381469727 C 1 11.55140399932861 1.448599815368652 12.00000381469727 2 12.00000381469727 L 9.636199951171875 12.00000381469727 L 10.06130981445312 12.00000381469727 L 10.35627937316895 12.30611419677734 L 11.09700393676758 13.07479763031006 L 11.96197986602783 12.26851463317871 L 12.25003051757812 12.00000381469727 L 12.64383029937744 12.00000381469727 L 14 12.00000381469727 C 14.55140018463135 12.00000381469727 15 11.55140399932861 15 11.00000381469727 L 15 2.000004768371582 C 15 1.448604583740234 14.55140018463135 1.000004768371582 14 1.000004768371582 L 2 1.000004768371582 M 2 4.76837158203125e-06 L 14 4.76837158203125e-06 C 15.10457038879395 4.76837158203125e-06 16 0.8954343795776367 16 2.000004768371582 L 16 11.00000381469727 C 16 12.10456466674805 15.10457038879395 13.00000476837158 14 13.00000476837158 L 12.64383029937744 13.00000476837158 L 11.05940055847168 14.47692394256592 L 9.636199951171875 13.00000476837158 L 2 13.00000476837158 C 0.8954296112060547 13.00000476837158 0 12.10456466674805 0 11.00000381469727 L 0 2.000004768371582 C 0 0.8954343795776367 0.8954296112060547 4.76837158203125e-06 2 4.76837158203125e-06 Z"/>
    </g>
    <rect id="矩形_17585" data-name="矩形 17585" width="8" height="1" transform="translate(252 310)"/>
    <rect id="矩形_17586" data-name="矩形 17586" width="8" height="1" transform="translate(252 313)"/>
  </g>
</svg>
