<?xml version="1.0" encoding="UTF-8"?>
<svg width="16px" height="16px" viewBox="0 0 16 16" version="1.1" xmlns="http://www.w3.org/2000/svg" xmlns:xlink="http://www.w3.org/1999/xlink">
    <title>切片</title>
    <g id="运动迭代" stroke="none" stroke-width="1" fill="none" fill-rule="evenodd" opacity="0.5">
        <g id="运动视频-不可点" transform="translate(-64.000000, -748.000000)" fill="#D0D0D0">
            <g id="编组-11" transform="translate(16.000000, 724.000000)">
                <g id="icon-退" transform="translate(48.000000, 24.000000)">
                    <path d="M12.3814254,1.33316877 L4.95740488,6.34196413 C4.04174561,6.95973584 3.80026004,8.20282726 4.41803176,9.11848653 C4.56155469,9.33121576 4.74467564,9.51433671 4.95740488,9.65785965 L12.3814254,14.666655 C13.2970846,15.2844267 14.540176,15.0429411 15.1579478,14.1272819 C15.3808873,13.7968416 15.5,13.4073209 15.5,13.0087072 L15.5,2.99111653 C15.5,1.88654703 14.6045695,0.991116528 13.5,0.991116528 C13.1013864,0.991116528 12.7118656,1.11022922 12.3814254,1.33316877 Z M2,1.17820571 C1.17157288,1.17820571 0.5,1.84977858 0.5,2.67820571 L0.5,13.3216181 C0.5,14.1500452 1.17157288,14.8216181 2,14.8216181 C2.82842712,14.8216181 3.5,14.1500452 3.5,13.3216181 L3.5,2.67820571 C3.5,1.84977858 2.82842712,1.17820571 2,1.17820571 Z" id="形状"></path>
                </g>
            </g>
        </g>
    </g>
</svg>